<svg id="Capa_1" enable-background="new 0 0 512 512" height="512" viewBox="0 0 512 512" width="512" xmlns="http://www.w3.org/2000/svg"><g><path d="m512 121.75v325.25c0 35.84-29.16 65-65 65h-382c-35.84 0-65-29.16-65-65v-325.25l256-56z" fill="#e7f2ff"/><path d="m512 121.75v325.25c0 35.84-29.16 65-65 65h-191v-446.25z" fill="#9dcfff"/><path d="m512 65v56.75h-512v-56.75c0-35.84 29.16-65 65-65h382c35.84 0 65 29.16 65 65z" fill="#00ddc0"/><path d="m512 65v56.75h-256v-121.75h191c35.84 0 65 29.16 65 65z" fill="#00ba9f"/><g><g><g><path d="m353.144 50.75h-270.47c-8.284 0-15 6.716-15 15s6.716 15 15 15h270.469c8.284 0 15-6.716 15-15s-6.715-15-14.999-15z" fill="#e7f2ff"/></g></g></g><g><g fill="#9dcfff"><path d="m429.325 50.75h-15c-8.284 0-15 6.716-15 15s6.716 15 15 15h15c8.284 0 15-6.716 15-15s-6.716-15-15-15z"/><path d="m368.14 65.75c0 8.28-6.71 15-15 15h-97.14v-30h97.14c8.29 0 15 6.72 15 15z"/></g></g><g><path d="m334.583 449.163h-157.166c-8.284 0-15-6.716-15-15s6.716-15 15-15h157.167c8.284 0 15 6.716 15 15s-6.717 15-15.001 15z" fill="#ffea80"/></g><g><path d="m349.58 434.16c0 8.29-6.71 15-15 15h-78.58v-30h78.58c8.29 0 15 6.72 15 15z" fill="#f3d332"/></g><path d="m400.33 224.25v120.42c0 22.05-17.94 40-40 40h-36.33l-68-8.34-68 8.34h-36.33c-22.06 0-40-17.95-40-40v-120.42c0-22.06 17.94-40 40-40h208.66c22.06 0 40 17.94 40 40z" fill="#00ddc0"/><path d="m400.33 224.25v120.42c0 22.05-17.94 40-40 40h-36.33l-68-8.34v-192.08h104.33c22.06 0 40 17.94 40 40z" fill="#00ba9f"/><path d="m324 355.15v29.52h-136v-28.49c0-37.32 29.63-68.46 66.94-69.02 36.065-1.032 69.06 28.809 69.06 67.99z" fill="#ff5e94"/><path d="m324 355.15v29.52h-68v-97.52c37.436 0 68 30.418 68 68z" fill="#ff3980"/><ellipse cx="256" cy="267.166" fill="#ffbda9" rx="53.999" ry="53.999" transform="matrix(.383 -.924 .924 .383 -88.796 401.439)"/><path d="m310 267.17c0 13.36-4.88 25.6-12.93 35.03-9.92 11.6-24.65 18.97-41.07 18.97v-108c29.78 0 54 24.22 54 54z" fill="#ffa68c"/><path d="m442.298 408.369-10.421-10.421 9.116-9.116c8.162-8.162 4.405-22.114-6.725-25.095l-53.883-14.438c-5.177-1.387-10.7.093-14.488 3.882-3.789 3.789-5.27 9.313-3.883 14.489l14.438 53.883c3.005 11.207 16.983 14.838 25.096 6.724l9.116-9.116 10.421 10.421c5.857 5.858 15.355 5.859 21.213 0 5.858-5.858 5.858-15.355 0-21.213z" fill="#5a5a5a"/><path d="m440.997 388.833-9.115 9.115 10.416 10.416c5.862 5.862 5.855 15.358 0 21.213l-76.396-76.396c3.79-3.79 9.313-5.268 14.489-3.882l53.882 14.439c11.145 2.984 14.872 16.947 6.724 25.095z" fill="#444"/></g></svg>